<?xml version="1.0" encoding="UTF-8"?>
<svg id="Layer_1" data-name="Layer 1" xmlns="http://www.w3.org/2000/svg" viewBox="0 0 385.53 137.67">
  <defs>
    <style>
      .cls-1 {
        fill: #0b9392;
      }

      .cls-2 {
        fill: #8cc047;
      }

      .cls-3 {
        fill: #10958f;
      }

      .cls-4 {
        fill: #fff;
      }

      .cls-5 {
        fill: #119392;
      }

      .cls-6 {
        fill: #f9f9f8;
      }

      .cls-7 {
        fill: #f9f9fa;
      }

      .cls-8 {
        fill: #fbaa23;
      }

      .cls-9 {
        fill: #75787f;
      }

      .cls-10 {
        fill: #fab62e;
      }
    </style>
  </defs>
  <g>
    <g>
      <polygon class="cls-1" points="15.89 77.32 2.42 77.32 67.78 23.19 91.78 43.1 91.78 36.47 109.14 36.47 109.14 57.15 134.16 77.32 119.61 77.32 67.78 34.56 15.89 77.32"/>
      <path class="cls-7" d="M136.44,78.36h-17.09l-51.54-42.52-51.61,42.52H.25L67.81,22.41l23.2,19.26v-5.74h18.95v21.09l26.48,21.34ZM119.92,76.77h12.02l-23.57-19v-20.27h-15.78v7.53l-24.79-20.57L4.65,76.77h10.99l52.18-42.99,52.11,42.99Z"/>
    </g>
    <g>
      <path class="cls-1" d="M134.44,77.65h-14.83l-.02-.02-51.77-42.71L15.95,77.65H2.2l.19-.16L67.81,23.32l.06.05,23.85,19.8v-6.54h17.54v20.73l25.18,20.3ZM119.67,77.48h14.27l-24.86-20.04v-20.63h-17.19v6.74l-24.09-19.99L2.69,77.48h13.19l51.92-42.78.06.05,51.8,42.73Z"/>
      <path class="cls-7" d="M136.69,78.45h-17.37l-.24-.2-51.27-42.29-51.58,42.49H0l1.88-1.56L67.81,22.29l.56.47,22.55,18.72v-5.64h19.12v21.14l26.64,21.47ZM119.95,76.68h11.74l-23.41-18.87v-20.22h-15.6v7.63l-24.88-20.65L4.89,76.68h10.71l52.21-43.01.56.46,51.58,42.55Z"/>
    </g>
  </g>
  <g>
    <g>
      <path class="cls-3" d="M67.81,128.14V38.39l-47.49,39.18v39.83c0,7.91,6.38,10.74,13.02,10.74h34.47Z"/>
      <path class="cls-4" d="M68.6,128.93h-35.26c-3.8,0-7.07-.88-9.45-2.55-2.85-1.99-4.36-5.1-4.36-8.99v-40.2l.29-.24,48.79-40.25v92.23ZM21.11,77.94v39.46c0,8.98,8.55,9.95,12.23,9.95h33.68V40.07l-45.91,37.87Z"/>
    </g>
    <g>
      <path class="cls-3" d="M67.9,128.22h-34.56c-2.55,0-6.19-.42-9.05-2.42-2.69-1.88-4.06-4.71-4.06-8.41v-39.87l.03-.03,47.64-39.3v90.03ZM20.41,77.61v39.79c0,6.67,4.83,10.65,12.93,10.65h34.38V38.57l-47.31,39.03Z"/>
      <path class="cls-4" d="M68.69,129.02h-35.35c-2.66,0-6.48-.44-9.5-2.56-2.92-2.04-4.4-5.09-4.4-9.06v-40.24l.32-.26,48.93-40.37v92.5ZM21.2,77.98v39.41c0,6.27,4.42,9.86,12.14,9.86h33.59V40.26l-45.73,37.73Z"/>
    </g>
  </g>
  <g>
    <g>
      <path class="cls-10" d="M68.32,128.14V38.39s47.49,39.18,47.49,39.18v39.83c0,7.91-6.38,10.74-13.02,10.74h-34.47Z"/>
      <path class="cls-4" d="M102.79,128.93h-35.26V36.7l49.08,40.49v40.2c0,3.89-1.51,6.99-4.36,8.99-2.38,1.67-5.65,2.55-9.45,2.55ZM69.11,127.34h33.68c3.68,0,12.23-.97,12.23-9.95v-39.46l-45.91-37.87v87.28Z"/>
    </g>
    <g>
      <path class="cls-10" d="M102.79,128.22h-34.56V38.2l.14.12,47.52,39.21v39.87c0,3.7-1.37,6.53-4.06,8.41-2.86,2-6.5,2.42-9.05,2.42ZM68.41,128.05h34.38c8.1,0,12.93-3.98,12.93-10.65v-39.79l-47.31-39.03v89.48Z"/>
      <path class="cls-4" d="M102.79,129.02h-35.35V36.52l1.44,1.19,47.81,39.44v40.25c0,3.97-1.48,7.02-4.4,9.06-3.03,2.12-6.84,2.56-9.5,2.56ZM69.2,127.26h33.59c7.72,0,12.14-3.59,12.14-9.86v-39.41l-45.73-37.73v87Z"/>
    </g>
  </g>
  <polygon class="cls-9" points="94.36 33.3 91.54 33.3 91.36 1.15 94.36 1.15 94.36 33.3"/>
  <path class="cls-6" d="M95.51,34.44h-4.94V0h4.94v34.44ZM91.98,32.86h2.3V1.59h-2.3v31.27Z"/>
  <g>
    <path class="cls-2" d="M97.07,24.71V7.29c2.02-2.58,6.81-5.73,12-5.7v13.95s-2.44-2.65-2.44-2.65l-9.56,11.82Z"/>
    <path class="cls-6" d="M96.28,26.95V7.02l.17-.22c2.34-2.99,7.39-6,12.54-6,.03,0,.06,0,.09,0h.79v16.77l-3.19-3.48-10.39,12.85ZM97.87,7.57v14.89l8.73-10.79,1.68,1.83V2.41c-4.23.25-8.4,2.74-10.41,5.16Z"/>
  </g>
  <g>
    <path class="cls-5" d="M110.97,16.24V1.66c3.92.53,7.24,2.1,10.07,4.81l-10.07,9.78Z"/>
    <path class="cls-6" d="M110.18,18.12V.75l.9.12c4.12.56,7.56,2.2,10.51,5.02l.59.57-12,11.66ZM111.77,2.59v11.78l8.12-7.88c-2.34-2.05-5.01-3.33-8.12-3.9Z"/>
  </g>
  <g>
    <path class="cls-8" d="M113.37,16.59l8.85-8.8c1.84,2.45,2.96,5.36,3.23,8.8h-12.07Z"/>
    <path class="cls-6" d="M126.3,17.38h-14.85l10.86-10.8.55.73c1.97,2.63,3.11,5.73,3.38,9.21l.07.85ZM115.29,15.79h9.27c-.31-2.51-1.14-4.78-2.46-6.78l-6.82,6.78Z"/>
  </g>
  <g>
    <path class="cls-8" d="M96.8,28.32l10.07-12.46,2.54,2.88h16.03c0,8.21-7.72,14.91-12.81,14.91h-15.84v-5.33Z"/>
    <path class="cls-6" d="M112.63,34.44h-16.63v-6.41l10.84-13.41,2.93,3.32h16.47v.79c0,3.95-1.67,7.88-4.71,11.08-2.71,2.85-6.11,4.62-8.88,4.62ZM97.59,32.86h15.04c2.32,0,5.35-1.62,7.73-4.13,1.51-1.59,3.98-4.83,4.25-9.2h-15.57l-2.16-2.45-9.3,11.52v4.26Z"/>
  </g>
  <g>
    <path class="cls-2" d="M81.74,75.78c-.14-.1-.21-.26-.21-.46l-2.12-11.31-.1-.05c-.07-.03-.17-.05-.31-.05-1-.52-2.25-.95-3.77-1.29-1.51-.34-3.05-.58-4.59-.72v24.62l3.87,1.7c2.27.96,4.41,2.03,6.43,3.2,2.01,1.17,3.74,2.48,5.19,3.92s2.57,3.1,3.38,4.96c.81,1.86,1.21,4.03,1.21,6.5,0,3.03-.53,5.72-1.6,8.08-1.07,2.36-2.5,4.41-4.28,6.14-1.79,1.74-3.9,3.13-6.32,4.18-2.43,1.05-5.05,1.78-7.87,2.19v8.47c0,.38-.19.57-.57.57h-3.77c-.34,0-.52-.19-.52-.57v-8h-1.29c-2.82,0-5.68-.25-8.57-.75-2.89-.5-5.54-1.09-7.95-1.78-.14-.1-.26-.19-.36-.26-.1-.07-.15-.24-.15-.52v-15.23c0-.21.05-.38.15-.52.1-.14.22-.21.36-.21h4.13c.07,0,.18.05.34.15s.23.26.23.46l1.86,11.2c0,.07.15.17.46.31.69.38,1.47.67,2.35.88s1.8.4,2.76.57c.96.17,1.92.29,2.87.36.95.07,1.8.1,2.56.1h.26v-26.95l-2.79-1.24c-2.17-.93-4.24-1.94-6.22-3.05-1.98-1.1-3.69-2.37-5.14-3.82s-2.61-3.06-3.48-4.85c-.88-1.79-1.32-3.89-1.32-6.3,0-2.75.51-5.22,1.52-7.41,1.01-2.19,2.39-4.1,4.13-5.76,1.74-1.65,3.75-2.97,6.04-3.95,2.29-.98,4.71-1.68,7.25-2.09v-8.47c0-.34.17-.52.52-.52h3.77c.38,0,.57.17.57.52v8.1c1.2,0,2.47.08,3.79.23,1.32.15,2.68.35,4.05.59,1.38.24,2.72.48,4.03.72,1.31.24,2.49.52,3.56.83.14.07.26.14.36.21.1.07.15.24.15.52v15.23c0,.21-.05.38-.15.52-.1.14-.22.21-.36.21h-4.03c-.07,0-.17-.05-.31-.15ZM55.82,72.58c0,1.41.25,2.69.75,3.85.5,1.15,1.19,2.2,2.06,3.15.88.95,1.92,1.81,3.12,2.58,1.2.77,2.55,1.52,4.03,2.25v-22.2c-1.34.28-2.62.7-3.82,1.26-1.21.57-2.26,1.29-3.17,2.17-.91.88-1.64,1.9-2.17,3.07-.53,1.17-.8,2.46-.8,3.87ZM81.32,110.83c0-1.62-.28-3.08-.85-4.39-.57-1.31-1.35-2.47-2.35-3.48-1-1.01-2.13-1.93-3.38-2.74-1.26-.81-2.62-1.57-4.1-2.3v24.21c1.48-.27,2.87-.73,4.18-1.37,1.31-.64,2.43-1.43,3.38-2.37s1.7-2.06,2.27-3.33c.57-1.27.85-2.68.85-4.23Z"/>
    <path class="cls-6" d="M70.07,137.67h-3.77c-1.03,0-1.75-.74-1.75-1.8v-6.77h-.06c-2.88,0-5.83-.26-8.78-.77-2.93-.51-5.65-1.12-8.08-1.81l-.22-.06-.18-.14c-.12-.09-.22-.16-.31-.22-.46-.31-.7-.83-.7-1.54v-15.23c0-.47.14-.9.4-1.26.34-.45.82-.7,1.35-.7h4.13c.42,0,.77.19,1.02.36.46.31.74.8.78,1.37l1.76,10.59c.57.3,1.23.55,1.97.72.86.2,1.77.39,2.7.55.92.16,1.84.28,2.74.35.52.04,1.02.07,1.49.08v-24.89l-2.06-.91c-2.19-.94-4.32-1.98-6.32-3.1-2.07-1.15-3.89-2.5-5.41-4.03s-2.79-3.28-3.72-5.18c-.96-1.95-1.44-4.25-1.44-6.84,0-2.92.55-5.59,1.64-7.93,1.08-2.32,2.56-4.38,4.4-6.13,1.84-1.75,3.99-3.15,6.4-4.19,2.06-.88,4.24-1.55,6.51-1.99v-7.43c0-1.03.72-1.75,1.75-1.75h3.77c1.06,0,1.8.72,1.8,1.75v6.9c.87.04,1.78.11,2.7.22,1.33.16,2.72.36,4.12.6,1.35.24,2.71.48,4.04.72,1.35.25,2.58.54,3.68.85l.11.03.1.05c.19.09.34.19.49.28.47.32.71.83.71,1.54v15.23c0,.47-.14.91-.4,1.26-.34.45-.82.7-1.35.7h-4.03c-.46,0-.82-.23-1.05-.4h0c-.42-.31-.66-.77-.7-1.31l-1.97-10.5c-.89-.44-2.02-.82-3.38-1.13-1.02-.23-2.05-.41-3.09-.55v22.44l3.14,1.38c2.29.97,4.5,2.07,6.55,3.26,2.1,1.22,3.93,2.6,5.44,4.12,1.55,1.55,2.77,3.34,3.64,5.34.87,2.01,1.32,4.36,1.32,7,0,3.19-.58,6.08-1.71,8.59-1.13,2.49-2.66,4.68-4.55,6.52-1.89,1.84-4.14,3.33-6.69,4.43-2.21.96-4.6,1.66-7.13,2.11v7.42c0,1.06-.74,1.8-1.8,1.8ZM67.02,135.21h2.39v-8.87l1.05-.15c2.7-.4,5.25-1.1,7.56-2.11,2.28-.98,4.28-2.31,5.95-3.93,1.67-1.62,3.02-3.56,4.02-5.77.99-2.19,1.49-4.73,1.49-7.57,0-2.29-.37-4.32-1.11-6.01-.74-1.71-1.79-3.25-3.12-4.58-1.36-1.36-3.02-2.62-4.94-3.73-1.96-1.14-4.08-2.19-6.29-3.13l-4.62-2.03v-26.78l1.34.12c1.59.14,3.2.39,4.76.75,1.5.34,2.79.77,3.83,1.28.19.03.36.08.51.15l.66.33,2.16,11.52h2.69v-14.36c-.93-.25-1.96-.49-3.07-.69-1.32-.24-2.67-.48-4.02-.72-1.36-.24-2.7-.43-3.98-.58-1.27-.15-2.5-.22-3.65-.22h-1.23v-8.62h-2.39v8.8l-1.04.17c-2.44.39-4.78,1.07-6.96,2.01-2.14.92-4.05,2.17-5.68,3.71-1.62,1.54-2.92,3.35-3.86,5.38-.93,2.01-1.41,4.33-1.41,6.89,0,2.21.4,4.14,1.19,5.75.81,1.66,1.91,3.18,3.25,4.52,1.36,1.36,3,2.58,4.86,3.61,1.93,1.07,3.98,2.08,6.11,2.99l3.54,1.57v28.98h-1.49c-.79,0-1.68-.04-2.65-.11-.99-.07-1.99-.2-2.99-.38-.97-.17-1.92-.37-2.83-.58-.96-.23-1.84-.55-2.61-.97-.36-.16-1.06-.5-1.14-1.27l-1.78-10.74h-2.83v14.41c2.25.63,4.75,1.18,7.44,1.64,2.81.48,5.62.73,8.36.73h2.52v8.57ZM48.29,124.05s0,0,.01,0c0,0,0,0-.01,0ZM69.4,123.62v-27.67l1.77.87c1.51.74,2.94,1.54,4.23,2.37,1.33.85,2.53,1.83,3.59,2.91,1.1,1.12,1.98,2.42,2.6,3.86.63,1.46.95,3.1.95,4.88s-.32,3.31-.96,4.74c-.63,1.41-1.48,2.65-2.53,3.7-1.04,1.04-2.29,1.92-3.71,2.61-1.4.68-2.91,1.18-4.5,1.47l-1.46.27ZM71.87,99.95v20.63c.84-.24,1.64-.55,2.41-.92,1.18-.57,2.2-1.29,3.05-2.14.84-.84,1.51-1.83,2.02-2.96.49-1.11.74-2.36.74-3.73,0-1.44-.25-2.75-.75-3.9-.5-1.16-1.21-2.21-2.1-3.11-.93-.95-2-1.81-3.17-2.56-.7-.45-1.43-.88-2.2-1.31ZM67.02,86.38l-1.77-.87c-1.52-.74-2.91-1.52-4.15-2.32-1.29-.83-2.42-1.76-3.36-2.78-.97-1.05-1.74-2.22-2.29-3.5-.56-1.3-.85-2.76-.85-4.34s.31-3.06.91-4.38c.6-1.31,1.42-2.47,2.44-3.45,1-.97,2.18-1.77,3.5-2.4,1.28-.61,2.66-1.06,4.1-1.36l1.48-.3v25.69ZM64.55,63.79c-.71.22-1.4.48-2.06.79-1.08.51-2.04,1.16-2.85,1.94-.8.77-1.44,1.67-1.9,2.69-.46,1-.69,2.13-.69,3.36s.22,2.36.65,3.36c.44,1.02,1.06,1.96,1.84,2.8.8.87,1.77,1.67,2.89,2.38.66.42,1.37.85,2.13,1.26v-18.59Z"/>
  </g>
  <g>
    <path class="cls-4" d="M142.26,75.54h14.63v4.3h-9.8v6.1h9.02v4.3h-9.02v9.97h-4.83v-24.67Z"/>
    <path class="cls-4" d="M162.42,83.61c.94-.42,2.06-.76,3.35-1,1.29-.25,2.64-.37,4.05-.37,1.22,0,2.24.15,3.07.44.82.29,1.47.71,1.96,1.25.48.54.82,1.19,1.02,1.94.2.75.3,1.6.3,2.54,0,1.03-.04,2.07-.11,3.12-.07,1.05-.11,2.07-.12,3.08-.01,1.01.02,1.99.09,2.94.07.95.25,1.85.53,2.7h-3.74l-.74-2.43h-.18c-.47.73-1.12,1.36-1.96,1.89-.83.53-1.91.79-3.22.79-.82,0-1.56-.12-2.22-.37-.66-.25-1.22-.6-1.69-1.06-.47-.46-.83-1-1.09-1.62-.26-.62-.39-1.32-.39-2.1,0-1.08.24-1.99.72-2.73.48-.74,1.17-1.34,2.08-1.8.9-.46,1.99-.78,3.24-.95,1.26-.18,2.66-.23,4.21-.16.16-1.32.07-2.26-.28-2.84-.35-.58-1.14-.86-2.36-.86-.92,0-1.89.09-2.91.28-1.02.19-1.86.44-2.52.74l-1.09-3.42ZM168.23,96.72c.92,0,1.64-.21,2.19-.62.54-.41.94-.85,1.2-1.32v-2.29c-.73-.07-1.43-.08-2.1-.04-.67.05-1.26.15-1.78.32-.52.16-.93.4-1.23.7s-.46.69-.46,1.16c0,.66.19,1.17.58,1.53.39.36.92.55,1.6.55Z"/>
    <path class="cls-4" d="M192.48,100.21v-9.59c0-1.62-.15-2.77-.46-3.45-.31-.68-.94-1.02-1.9-1.02-.8,0-1.44.22-1.94.65-.49.44-.87.99-1.13,1.67v11.74h-4.58v-17.62h3.56l.53,2.33h.14c.54-.75,1.23-1.41,2.06-1.97.83-.56,1.91-.85,3.22-.85,1.13,0,2.05.23,2.77.69.72.46,1.27,1.23,1.67,2.31.54-.92,1.23-1.64,2.08-2.19.85-.54,1.87-.81,3.07-.81.99,0,1.83.12,2.52.35.69.24,1.26.64,1.69,1.22.43.58.76,1.35.97,2.31.21.96.32,2.18.32,3.67v10.57h-4.58v-9.9c0-1.39-.15-2.43-.44-3.12-.29-.69-.95-1.04-1.96-1.04-.82,0-1.47.22-1.96.67-.48.45-.84,1.06-1.07,1.83v11.56h-4.58Z"/>
    <path class="cls-4" d="M213.03,77.62c0-.68.25-1.26.76-1.74.5-.48,1.2-.72,2.1-.72s1.62.24,2.17.72c.55.48.83,1.06.83,1.74s-.28,1.25-.83,1.71c-.55.46-1.27.69-2.17.69s-1.59-.23-2.1-.69c-.51-.46-.76-1.03-.76-1.71ZM213.7,82.59h4.58v17.62h-4.58v-17.62Z"/>
    <path class="cls-4" d="M229.98,94.29c0,.82.11,1.42.32,1.8.21.38.55.56,1.02.56.28,0,.56-.02.83-.07.27-.05.6-.15,1-.32l.49,3.59c-.38.19-.95.38-1.73.56-.78.19-1.57.28-2.4.28-1.34,0-2.36-.31-3.07-.93s-1.06-1.65-1.06-3.08v-21.15h4.58v18.75Z"/>
    <path class="cls-4" d="M244.5,92.49l.63,2.75h.21l.46-2.78,2.68-9.87h4.72l-5.36,15.89c-.45,1.32-.88,2.52-1.29,3.61-.41,1.09-.86,2.04-1.36,2.84-.49.8-1.04,1.42-1.64,1.85-.6.43-1.31.65-2.13.65-1.22,0-2.2-.2-2.93-.6l.85-3.67c.35.14.7.21,1.06.21.54,0,1.06-.23,1.57-.69.51-.46.89-1.29,1.15-2.48l-7.37-17.62h5.5l3.24,9.9Z"/>
    <path class="cls-4" d="M284.22,81.29c0,.61-.08,1.22-.23,1.83-.15.61-.4,1.17-.75,1.67-.35.51-.81.95-1.37,1.34s-1.24.68-2.03.86v.21c.7.12,1.37.32,2,.6.63.28,1.18.67,1.65,1.16.47.49.84,1.09,1.1,1.8.27.7.4,1.54.4,2.5,0,1.27-.27,2.37-.81,3.3-.54.93-1.26,1.69-2.17,2.27-.9.59-1.93,1.02-3.08,1.3-1.15.28-2.34.42-3.56.42h-1.53c-.62,0-1.29-.02-2.01-.05-.72-.04-1.44-.09-2.18-.16s-1.42-.18-2.03-.32v-24.32c.45-.07.96-.14,1.53-.21.58-.07,1.19-.13,1.85-.18.66-.05,1.33-.08,2.03-.11.69-.02,1.38-.04,2.06-.04,1.15,0,2.27.09,3.37.26,1.09.18,2.07.49,2.93.93.86.45,1.54,1.07,2.06,1.87.52.8.78,1.81.78,3.03ZM273.89,85.9c.33,0,.71-.01,1.15-.03.43-.02.79-.06,1.07-.1.89-.28,1.66-.7,2.31-1.26.65-.56.97-1.29.97-2.2,0-.6-.12-1.1-.35-1.5-.24-.4-.55-.71-.93-.94-.39-.23-.83-.39-1.32-.49-.49-.09-1.01-.14-1.55-.14-.61,0-1.18.01-1.69.04-.52.02-.92.06-1.2.1v6.52h1.55ZM275.42,96.51c.58,0,1.14-.07,1.68-.21.54-.14,1.02-.35,1.44-.65.42-.29.75-.66,1-1.1.25-.44.38-.97.38-1.57,0-.77-.15-1.37-.45-1.81-.3-.44-.69-.78-1.18-1.03-.48-.24-1.03-.4-1.63-.47-.6-.07-1.2-.1-1.8-.1h-2.53v6.73c.12.05.3.08.55.1.25.02.52.04.81.05.29.01.59.02.9.04.31.01.58.02.81.02Z"/>
    <path class="cls-4" d="M295.21,82.59v10.01c0,1.43.17,2.47.51,3.1.34.63,1,.95,1.99.95.87,0,1.59-.26,2.17-.78.58-.52,1-1.15,1.29-1.9v-11.38h4.58v12.26c0,.96.05,1.91.14,2.84.09.93.23,1.77.42,2.52h-3.45l-.81-2.61h-.14c-.54.89-1.29,1.63-2.26,2.22-.96.59-2.1.88-3.42.88-.89,0-1.69-.12-2.4-.35s-1.29-.62-1.76-1.16c-.47-.54-.83-1.27-1.07-2.19-.25-.92-.37-2.07-.37-3.45v-10.96h4.58Z"/>
    <path class="cls-4" d="M327.21,94.01c0,.99.01,1.97.04,2.96.02.99.13,2.08.32,3.28h-3.28l-.63-2.29h-.14c-.47.82-1.15,1.49-2.03,1.99-.88.5-1.92.76-3.12.76-2.21,0-3.92-.73-5.15-2.19-1.22-1.46-1.83-3.74-1.83-6.84s.68-5.34,2.04-7.01c1.36-1.67,3.36-2.5,5.99-2.5.73,0,1.33.04,1.8.12.47.08.94.22,1.41.41v-7.15h4.58v18.47ZM319.42,96.83c.89,0,1.6-.22,2.11-.65.52-.43.88-1.06,1.09-1.89v-7.47c-.33-.26-.69-.45-1.09-.58-.4-.13-.92-.19-1.55-.19-1.29,0-2.26.44-2.91,1.3-.65.87-.97,2.36-.97,4.48,0,1.5.26,2.71.79,3.63s1.37,1.37,2.52,1.37Z"/>
    <path class="cls-4" d="M348.6,100.21c0,2.56-.69,4.45-2.08,5.66-1.39,1.21-3.32,1.81-5.81,1.81-1.69,0-3.03-.12-4-.35-.98-.24-1.71-.48-2.2-.74l.95-3.63c.54.21,1.17.42,1.89.63.72.21,1.6.32,2.66.32,1.6,0,2.68-.35,3.26-1.04.58-.69.86-1.66.86-2.91v-1.13h-.14c-.82,1.1-2.28,1.66-4.37,1.66-2.28,0-3.98-.7-5.09-2.11-1.12-1.41-1.67-3.62-1.67-6.63s.75-5.53,2.26-7.15c1.5-1.62,3.69-2.43,6.56-2.43,1.5,0,2.85.11,4.04.32,1.19.21,2.16.46,2.91.74v16.99ZM340.85,96.83c.89,0,1.58-.2,2.06-.6.48-.4.85-1,1.11-1.8v-7.93c-.73-.31-1.63-.46-2.71-.46-1.18,0-2.09.44-2.75,1.32-.66.88-.99,2.29-.99,4.21,0,1.72.28,3.02.85,3.91.56.89,1.37,1.34,2.43,1.34Z"/>
    <path class="cls-4" d="M369.15,98.7c-.7.56-1.66,1.04-2.87,1.43-1.21.39-2.5.58-3.86.58-2.84,0-4.92-.83-6.24-2.48-1.32-1.66-1.97-3.93-1.97-6.82,0-3.1.74-5.43,2.22-6.98,1.48-1.55,3.56-2.33,6.24-2.33.89,0,1.76.12,2.61.35.85.24,1.6.62,2.26,1.16.66.54,1.19,1.27,1.59,2.19.4.92.6,2.06.6,3.42,0,.49-.03,1.02-.09,1.59s-.15,1.15-.26,1.76h-10.54c.07,1.48.45,2.6,1.14,3.35.69.75,1.81,1.13,3.35,1.13.96,0,1.82-.15,2.58-.44.76-.29,1.34-.59,1.74-.9l1.51,3ZM362.61,85.76c-1.19,0-2.07.36-2.65,1.07-.57.72-.92,1.67-1.03,2.87h6.52c.09-1.27-.1-2.24-.58-2.93-.48-.68-1.23-1.02-2.26-1.02Z"/>
    <path class="cls-4" d="M373.59,82.59h2.43v-3.31l4.58-1.3v4.62h4.3v3.88h-4.3v6.77c0,1.22.12,2.1.37,2.63.25.53.71.79,1.39.79.47,0,.88-.05,1.22-.14.34-.09.72-.23,1.15-.42l.81,3.52c-.63.31-1.37.56-2.22.78s-1.7.32-2.57.32c-1.62,0-2.81-.42-3.58-1.25-.76-.83-1.15-2.2-1.15-4.11v-8.88h-2.43v-3.88Z"/>
    <path class="cls-4" d="M206.6,123.85c-.02.12-.03.24-.03.36,0,.11,0,.23,0,.34,0,.59.08,1.09.24,1.5s.38.74.67,1,.64.45,1.05.56.87.17,1.38.17,1-.07,1.46-.21c.46-.14.86-.35,1.21-.64s.63-.64.83-1.06c.21-.42.31-.91.31-1.46,0-.35-.05-.67-.14-.96-.1-.29-.23-.56-.39-.81-.17-.25-.37-.47-.6-.68s-.48-.4-.75-.58c-.27-.18-.56-.36-.86-.53-.3-.17-.6-.34-.91-.51-.33-.18-.65-.36-.97-.54s-.63-.38-.93-.6-.57-.44-.82-.69c-.25-.25-.47-.52-.65-.82s-.33-.63-.43-.99-.16-.76-.16-1.2c0-.55.07-1.06.21-1.53s.33-.91.58-1.3.55-.75.9-1.06.73-.57,1.15-.79c.42-.21.86-.38,1.33-.49.47-.11.96-.17,1.45-.17.23,0,.47.01.73.04.26.03.52.07.77.13.26.06.5.13.74.21.23.08.44.17.62.27.18.1.33.22.43.34s.16.26.16.39c0,.15,0,.34,0,.56,0,.22-.01.48-.02.77s-.02.6-.03.94c-.02.34-.03.7-.05,1.07l-.78-.04c.02-.19.02-.36.02-.53,0-.51-.08-.96-.23-1.35-.15-.39-.37-.71-.64-.98-.28-.26-.61-.46-1-.59s-.82-.2-1.3-.2-.92.08-1.33.24c-.41.16-.77.38-1.06.66-.3.28-.53.62-.7,1s-.26.81-.26,1.28c0,.38.05.72.15,1.03.1.31.23.59.41.85s.38.49.62.7c.24.21.5.41.77.6.28.19.57.37.88.54s.62.34.94.51c.33.17.65.35.97.53s.63.37.93.58c.29.2.57.43.82.67s.47.51.65.8c.18.29.33.61.43.96s.16.74.16,1.17c0,.71-.1,1.33-.29,1.88s-.45,1.02-.78,1.43c-.33.41-.7.75-1.12,1.03s-.86.5-1.31.67c-.45.17-.91.29-1.36.37-.45.07-.88.11-1.26.11-.51,0-.99-.03-1.44-.1s-.84-.16-1.18-.27c-.34-.11-.6-.24-.8-.39s-.29-.3-.29-.45c0-.35.01-.84.03-1.49s.06-1.41.11-2.3l.78.04Z"/>
    <path class="cls-4" d="M222.39,117.51c-.09.59-.16,1.18-.22,1.77-.06.59-.11,1.16-.15,1.72s-.07,1.08-.09,1.57c-.02.49-.03.94-.03,1.34,0,.54,0,1,.02,1.38.02.38.04.71.08.97s.08.47.14.63c.05.16.12.28.2.36.08.09.17.14.28.17.11.03.23.04.36.04.25,0,.52-.04.8-.11.29-.07.58-.18.87-.31l.15.4c-.19.15-.42.3-.7.46-.28.15-.58.3-.89.43-.31.13-.61.23-.91.31-.3.08-.55.12-.77.12-.14,0-.28-.01-.39-.03s-.23-.08-.32-.17c-.1-.09-.18-.23-.26-.41-.07-.18-.14-.43-.19-.74-.05-.31-.09-.7-.11-1.16s-.04-1.03-.04-1.69c0-.39,0-.82.01-1.31s.02-1.01.03-1.57c.02-.56.04-1.15.06-1.77.03-.62.06-1.26.1-1.92.01-.14.05-.26.12-.35.07-.09.15-.16.25-.21.1-.05.2-.08.31-.1.11-.02.21-.03.31-.03.35,0,.67.08.98.24ZM221.71,114.01c-.18,0-.34-.04-.48-.11-.14-.07-.26-.17-.36-.29-.1-.12-.17-.26-.22-.42-.05-.16-.08-.32-.08-.48,0-.23.04-.44.12-.62s.18-.33.3-.45c.12-.12.26-.21.41-.27.15-.06.3-.09.44-.09.18,0,.33.03.47.1.14.06.26.15.36.27s.18.24.23.39.08.31.08.48c0,.18-.03.36-.09.54s-.15.34-.26.48c-.11.14-.25.26-.4.35-.16.09-.33.13-.52.13Z"/>
    <path class="cls-4" d="M226.66,118.11c.37-.13.72-.25,1.06-.35.34-.11.65-.2.93-.27.28-.08.53-.14.75-.18s.39-.06.51-.06c.3,0,.53.09.7.27s.25.48.25.92c0,.1-.01.32-.03.66-.02.34-.05.76-.09,1.27s-.09,1.09-.14,1.75c-.06.66-.12,1.35-.19,2.09h.05c.36-1.3.75-2.4,1.15-3.3.41-.89.82-1.61,1.25-2.16.42-.55.85-.94,1.28-1.17.43-.23.84-.35,1.25-.35.36,0,.66.09.91.26s.45.41.6.69.27.61.34.96c.07.36.11.72.11,1.1,0,.33-.01.67-.03,1.03-.02.36-.05.72-.08,1.08-.03.35-.06.69-.1,1.01s-.06.6-.09.83h.05c.36-1.32.75-2.44,1.16-3.34.41-.9.83-1.62,1.25-2.17s.85-.94,1.28-1.17c.43-.23.84-.35,1.25-.35.26,0,.51.05.75.16.24.11.46.28.65.52s.34.55.45.93c.11.38.17.83.17,1.36,0,.15,0,.36-.03.62-.02.26-.04.55-.07.87-.03.32-.06.66-.09,1.02-.03.36-.06.71-.09,1.06-.03.35-.05.67-.07.99-.02.31-.03.58-.03.81,0,.4.02.73.05.98s.09.45.17.6.18.25.31.3c.13.05.29.08.47.08.27,0,.55-.04.84-.11.29-.07.58-.18.88-.31l.15.4c-.19.15-.42.3-.7.46-.28.15-.58.3-.89.43-.31.13-.62.23-.93.31s-.58.12-.82.12c-.28,0-.5-.07-.66-.22-.16-.15-.28-.35-.36-.61s-.13-.56-.15-.91-.03-.72-.03-1.12c0-.48.02-.98.05-1.51s.07-1.03.11-1.5c.04-.47.08-.9.11-1.29.03-.38.05-.67.05-.87,0-.56-.1-.98-.3-1.27-.2-.28-.47-.42-.81-.42-.26,0-.54.13-.84.38-.3.25-.59.6-.89,1.03s-.58.96-.86,1.55-.53,1.24-.75,1.94c-.22.7-.41,1.43-.56,2.19-.15.76-.25,1.52-.3,2.29l-1.62.2h-.12c.06-1.09.11-2.05.16-2.89s.09-1.57.13-2.19.07-1.15.09-1.59.03-.79.03-1.08c0-.58-.1-1.01-.3-1.31s-.45-.44-.76-.44c-.27,0-.56.12-.86.37-.3.25-.6.58-.89,1.02s-.58.95-.85,1.54c-.27.59-.52,1.23-.74,1.92s-.4,1.41-.55,2.17-.24,1.52-.29,2.28l-1.62.2h-.12c.04-.5.08-1.03.12-1.61.04-.58.07-1.17.1-1.76s.06-1.19.08-1.77c.02-.59.04-1.13.06-1.64.02-.51.03-.96.04-1.37s.01-.72.01-.95c0-.21-.02-.39-.05-.53s-.08-.26-.14-.34-.15-.15-.24-.18c-.1-.04-.21-.05-.35-.05-.19,0-.41.03-.67.08-.26.05-.55.12-.88.21l-.12-.56Z"/>
    <path class="cls-4" d="M248.27,118.08c.58-.18,1.07-.32,1.48-.43.41-.11.75-.19,1.03-.26s.49-.1.65-.13.27-.03.35-.03c.13,0,.25.02.36.06.11.04.21.1.3.2s.15.22.2.38c.05.16.07.35.07.58,0,.08,0,.23-.01.46s-.02.54-.04.94c-.02.4-.05.89-.08,1.47s-.08,1.26-.13,2.05h.09c.4-.99.84-1.88,1.3-2.65.47-.77.94-1.42,1.42-1.95s.96-.93,1.44-1.2.94-.41,1.37-.41c.35,0,.66.07.93.2.27.13.5.31.7.53.2.22.37.47.5.76.13.29.24.59.33.9.08.31.14.63.18.95.04.32.05.62.05.9,0,.76-.08,1.47-.23,2.13s-.37,1.27-.63,1.82c-.27.55-.59,1.04-.95,1.48-.37.43-.76.8-1.19,1.1-.43.3-.87.52-1.34.68s-.94.24-1.41.24c-.5,0-.99-.09-1.46-.27-.48-.18-.92-.48-1.34-.9-.06,1.3-.11,2.63-.17,4.01-.06,1.38-.09,2.82-.09,4.32l-1.63.19h-.16c.08-.97.15-1.99.22-3.05.07-1.06.13-2.13.19-3.19.06-1.07.11-2.12.15-3.16.05-1.03.09-2.01.12-2.92s.06-1.73.07-2.47c.02-.74.03-1.35.03-1.84,0-.2-.01-.37-.03-.52-.02-.15-.06-.27-.12-.37s-.15-.17-.26-.22c-.11-.05-.26-.07-.45-.07s-.42.02-.7.06c-.27.04-.6.11-.99.21l-.12-.57ZM252.28,126.81c.44.37.88.65,1.31.82s.87.26,1.31.26c.58,0,1.11-.12,1.6-.37.49-.25.91-.61,1.26-1.1s.63-1.09.83-1.8c.2-.71.3-1.54.3-2.49,0-.35-.03-.71-.08-1.08s-.14-.71-.26-1.01-.27-.55-.46-.74-.42-.29-.69-.29c-.31,0-.63.08-.94.24s-.61.38-.9.66c-.29.28-.57.6-.84.97-.27.37-.52.77-.76,1.18-.24.42-.45.84-.65,1.29-.2.44-.37.87-.52,1.29s-.27.81-.36,1.18-.15.7-.17.98Z"/>
    <path class="cls-4" d="M268.62,107.62c-.1.88-.21,1.78-.31,2.7s-.2,1.85-.29,2.8c-.09.94-.17,1.89-.25,2.84s-.14,1.89-.2,2.81-.1,1.83-.13,2.71-.05,1.74-.05,2.56c0,.51,0,.95.02,1.32.01.37.03.68.06.93.03.25.07.46.12.61.05.15.11.27.18.36s.16.14.26.17c.1.03.21.04.35.04.25,0,.52-.04.8-.11.29-.07.58-.18.87-.31l.15.4c-.19.15-.42.3-.7.46-.28.15-.58.3-.89.43-.31.13-.61.23-.91.31-.3.08-.55.12-.77.12-.28,0-.5-.07-.66-.21s-.29-.37-.37-.69-.14-.74-.16-1.25c-.02-.51-.03-1.14-.03-1.88,0-.27,0-.65.02-1.15.02-.5.04-1.08.07-1.74.03-.66.06-1.38.1-2.17s.07-1.6.12-2.44c.04-.84.09-1.69.13-2.54.05-.85.09-1.68.14-2.48s.09-1.55.13-2.26.08-1.33.12-1.87c0-.12.04-.23.11-.32.07-.09.15-.16.26-.22.11-.05.22-.09.36-.12s.26-.04.4-.04c.31,0,.63.08.98.25Z"/>
    <path class="cls-4" d="M276.24,117.51c-.09.59-.16,1.18-.22,1.77-.06.59-.11,1.16-.15,1.72s-.07,1.08-.09,1.57c-.02.49-.03.94-.03,1.34,0,.54,0,1,.02,1.38.02.38.04.71.08.97.04.26.08.47.14.63.05.16.12.28.2.36s.17.14.28.17.23.04.36.04c.25,0,.51-.04.8-.11.29-.07.58-.18.87-.31l.15.4c-.19.15-.42.3-.7.46s-.58.3-.89.43c-.31.13-.61.23-.91.31s-.55.12-.77.12c-.14,0-.28-.01-.39-.03-.12-.02-.23-.08-.32-.17s-.18-.23-.26-.41-.14-.43-.19-.74-.09-.7-.11-1.16c-.03-.46-.04-1.03-.04-1.69,0-.39,0-.82.01-1.31s.02-1.01.03-1.57c.02-.56.04-1.15.06-1.77.03-.62.06-1.26.1-1.92.01-.14.05-.26.12-.35.07-.09.15-.16.25-.21.1-.05.2-.08.31-.1.11-.02.21-.03.31-.03.35,0,.67.08.98.24ZM275.57,114.01c-.18,0-.34-.04-.48-.11-.14-.07-.26-.17-.36-.29-.1-.12-.17-.26-.22-.42-.05-.16-.08-.32-.08-.48,0-.23.04-.44.12-.62s.18-.33.3-.45c.12-.12.26-.21.41-.27.15-.06.3-.09.44-.09.18,0,.33.03.47.1.14.06.26.15.36.27s.18.24.23.39.08.31.08.48c0,.18-.03.36-.09.54s-.15.34-.26.48-.25.26-.4.35-.33.13-.52.13Z"/>
    <path class="cls-4" d="M289.89,111.05c.12-.25.21-.49.26-.71.06-.22.09-.42.09-.62,0-.24-.04-.45-.12-.63-.08-.19-.19-.34-.34-.47s-.32-.23-.52-.29c-.2-.06-.42-.1-.66-.1-.41,0-.77.06-1.08.19s-.58.29-.81.51c-.23.22-.42.47-.58.75-.16.29-.29.59-.4.92s-.2.66-.26,1.01-.12.69-.17,1.02c-.06.45-.11.88-.16,1.29-.04.41-.08.81-.12,1.22-.03.41-.06.82-.08,1.25-.02.43-.04.9-.05,1.4.39.01.78.03,1.19.05.41.02.83.03,1.29.03.55,0,1.14-.03,1.78-.09.64-.06,1.35-.19,2.13-.37-.08.61-.15,1.22-.21,1.81-.06.59-.11,1.17-.15,1.72s-.07,1.08-.09,1.57c-.02.5-.03.95-.03,1.36,0,.54,0,1.01.02,1.4.02.39.04.72.08.98.04.27.08.48.14.63.05.16.12.28.2.36.08.09.17.14.28.17.11.03.23.04.36.04.25,0,.52-.04.8-.11.29-.07.58-.18.87-.31l.15.4c-.19.15-.42.3-.7.46-.28.15-.58.3-.89.43-.31.13-.61.23-.91.31-.3.08-.55.12-.77.12-.14,0-.28-.01-.39-.04-.12-.03-.23-.08-.32-.17-.1-.09-.18-.23-.26-.41-.07-.18-.14-.43-.19-.74-.05-.31-.09-.7-.11-1.17s-.04-1.04-.04-1.7c0-.6,0-1.3.03-2.08.02-.78.05-1.64.1-2.59.01-.22.02-.43.04-.63.02-.2.04-.44.07-.7l-.04-.02c-.34.09-.69.15-1.04.18s-.7.05-1.06.05c-.4,0-.8-.01-1.19-.04-.39-.03-.78-.04-1.17-.05-.02.61-.05,1.28-.08,2.01s-.07,1.47-.12,2.25c-.05.77-.11,1.56-.18,2.36s-.16,1.58-.27,2.33c-.11.76-.23,1.48-.38,2.17s-.31,1.32-.5,1.88c-.3.88-.65,1.62-1.03,2.21s-.79,1.07-1.22,1.42c-.43.36-.88.61-1.34.77s-.92.23-1.38.23c-.4,0-.77-.04-1.1-.13-.34-.09-.63-.21-.88-.36-.25-.15-.44-.32-.58-.52s-.21-.41-.21-.63c0-.12.03-.25.09-.37.06-.12.14-.23.24-.32s.22-.17.36-.23.29-.09.45-.09c.15.27.31.5.5.69.18.19.37.34.58.46.21.12.42.21.64.27.22.06.45.09.67.09.59,0,1.1-.19,1.51-.58.42-.38.76-.93,1.05-1.63.28-.7.5-1.56.66-2.55.16-1,.28-2.11.37-3.33.09-1.22.14-2.54.17-3.96.03-1.42.05-2.9.06-4.46-.49,0-.93.02-1.34.05s-.76.1-1.03.2c-.02-.05-.03-.1-.03-.15,0-.12.06-.24.17-.35s.28-.2.5-.28c.21-.08.47-.15.77-.2s.63-.09,1-.1c.02-.49.05-.95.08-1.39s.07-.88.12-1.31c.05-.43.11-.86.19-1.3.07-.43.17-.88.27-1.35.14-.6.32-1.15.54-1.63.22-.48.47-.91.76-1.29.28-.37.59-.7.91-.96.33-.27.66-.49,1.01-.66.35-.17.7-.3,1.05-.38.36-.08.7-.12,1.05-.12.49,0,.93.07,1.33.2s.73.31,1.01.53c.28.22.49.48.64.77.15.29.22.6.22.92,0,.25-.04.48-.11.67-.07.2-.18.36-.31.5-.13.14-.28.24-.44.31s-.34.1-.53.1c-.13,0-.27-.02-.42-.06s-.28-.1-.42-.18l-.03-.09Z"/>
    <path class="cls-4" d="M304.4,126.01s.07.04.12.07c.05.03.09.06.14.09.04.03.08.07.11.11s.05.08.05.11c0,.02,0,.04-.02.06-.29.4-.6.75-.93,1.05-.33.3-.68.54-1.04.74-.36.2-.72.35-1.1.44s-.74.14-1.1.14c-.62,0-1.19-.13-1.7-.38-.52-.25-.96-.6-1.33-1.04s-.66-.95-.87-1.54c-.21-.59-.31-1.22-.31-1.9,0-.55.06-1.1.18-1.66s.3-1.08.53-1.58.51-.97.84-1.4c.33-.43.71-.81,1.13-1.12s.88-.57,1.39-.75,1.04-.27,1.62-.27c.38,0,.75.05,1.09.15.35.1.65.25.91.45s.47.43.62.72.23.61.23.97c0,.53-.17.99-.52,1.38s-.82.73-1.42,1-1.32.49-2.13.66c-.82.17-1.7.29-2.65.38v.13c0,.66.08,1.26.25,1.81s.4,1.02.69,1.41c.29.39.64.69,1.04.91.4.22.83.33,1.29.33s.94-.11,1.43-.34c.49-.23.98-.6,1.48-1.12ZM302.95,119.79c0-.24-.04-.46-.12-.67s-.19-.39-.33-.54c-.14-.15-.31-.27-.51-.36-.2-.09-.41-.13-.63-.13-.34,0-.64.06-.91.18-.27.12-.52.28-.74.48-.22.2-.41.44-.57.71-.17.27-.31.56-.42.86s-.21.62-.28.94c-.07.32-.12.63-.15.94.73-.05,1.39-.14,1.97-.27.58-.13,1.07-.29,1.47-.49.4-.2.71-.44.92-.71.21-.28.32-.59.32-.95Z"/>
    <path class="cls-4" d="M319.62,107.62c-.19,1.31-.36,2.65-.53,4.03s-.32,2.74-.45,4.1c-.13,1.36-.23,2.71-.31,4.03s-.12,2.59-.12,3.8c0,.58,0,1.08.02,1.5s.03.77.06,1.06.07.52.12.69.11.3.19.39.16.15.26.18c.1.03.21.04.35.04.25,0,.51-.04.8-.11.29-.07.58-.18.87-.31l.15.4c-.19.15-.42.3-.7.46s-.58.3-.89.43c-.31.13-.61.23-.91.31s-.55.12-.77.12c-.16,0-.3-.02-.42-.05-.12-.04-.22-.1-.31-.19s-.16-.21-.22-.36-.11-.34-.14-.57c-.05-.31-.08-.67-.11-1.08s-.04-.86-.04-1.35c0-.52.02-1.04.06-1.58s.1-1.07.19-1.6l-.07-.02c-.4,1.05-.83,2-1.3,2.84s-.95,1.57-1.44,2.17-.99,1.06-1.49,1.38c-.5.32-.98.48-1.44.48s-.86-.12-1.2-.35c-.34-.23-.61-.54-.82-.93-.21-.38-.37-.83-.48-1.32-.1-.5-.15-1.01-.15-1.54,0-.63.07-1.26.21-1.88.14-.62.34-1.2.6-1.75s.57-1.06.94-1.54c.37-.47.78-.88,1.23-1.22.45-.34.95-.61,1.48-.8s1.09-.29,1.67-.29c.41,0,.81.05,1.22.15s.81.27,1.21.51c.03-.88.06-1.77.1-2.68s.08-1.79.14-2.64c.05-.86.11-1.67.17-2.43s.13-1.45.2-2.04c.02-.12.06-.23.12-.32.07-.09.15-.16.26-.22.1-.05.22-.09.35-.12.13-.03.26-.04.39-.04.31,0,.63.08.98.25ZM316.84,118.53c-.7-.33-1.39-.5-2.08-.5-.5,0-.96.08-1.38.24s-.8.38-1.13.66c-.34.28-.63.61-.88.99-.25.38-.46.79-.63,1.22-.17.44-.29.89-.38,1.36s-.13.94-.13,1.4c0,.17,0,.36.02.57.02.21.05.44.09.67.04.23.1.45.17.67.07.22.16.42.27.59s.24.32.39.42c.15.11.33.16.54.16.37,0,.75-.14,1.14-.42s.77-.65,1.13-1.11.72-.99,1.05-1.58.62-1.2.88-1.83.46-1.25.63-1.86.26-1.17.3-1.67Z"/>
  </g>
</svg>