<?xml version="1.0" encoding="UTF-8"?>
<svg id="Layer_7" data-name="Layer 7" xmlns="http://www.w3.org/2000/svg" viewBox="0 0 2188.92 849.17">
  <defs>
    <style>
      .cls-1 {
        fill: #0e9392;
      }

      .cls-1, .cls-2, .cls-3, .cls-4, .cls-5, .cls-6, .cls-7 {
        stroke-width: 9px;
      }

      .cls-1, .cls-2, .cls-8, .cls-5, .cls-6 {
        stroke: #f9f9f7;
      }

      .cls-2 {
        fill: #faa924;
      }

      .cls-3 {
        fill: #0d948e;
      }

      .cls-3, .cls-4 {
        stroke: #fff;
      }

      .cls-8 {
        stroke-miterlimit: 10;
        stroke-width: 14px;
      }

      .cls-8, .cls-6 {
        fill: #8dc047;
      }

      .cls-9 {
        fill: #fff;
      }

      .cls-10 {
        letter-spacing: .07em;
      }

      .cls-11 {
        letter-spacing: .03em;
      }

      .cls-4 {
        fill: #fbb730;
      }

      .cls-5 {
        fill: #74777e;
      }

      .cls-12 {
        font-family: Gabriola, Gabriola;
        font-size: 180px;
      }

      .cls-13 {
        font-family: PTSans-Bold, 'PT Sans';
        font-size: 200px;
        font-weight: 700;
      }

      .cls-7 {
        fill: #0d9392;
        stroke: #f9f9f9;
      }

      .cls-14 {
        letter-spacing: .07em;
      }

      .cls-15 {
        letter-spacing: .07em;
      }
    </style>
  </defs>
  <g>
    <polygon class="cls-7" points="90.33 439.18 13.88 439.18 384.82 132.01 521.01 245.02 521.01 207.35 619.54 207.35 619.54 324.72 761.54 439.18 678.95 439.18 384.82 196.56 90.33 439.18"/>
    <path class="cls-7" d="M762.95,439.68h-84.19l-.14-.11-293.81-242.36L90.51,439.68H12.49l1.07-.88L384.82,131.36l.32.26,135.37,112.34v-37.11h99.53v117.62l142.91,115.21ZM679.13,438.68h80.99l-141.08-113.73v-117.1h-97.53v38.24l-136.69-113.43L15.27,438.68h74.88l294.67-242.78.32.26,293.99,242.51Z"/>
  </g>
  <g>
    <path class="cls-3" d="M384.82,726.18V216.84L115.31,439.18v226.03c0,44.92,36.22,60.96,73.9,60.96h195.62Z"/>
    <path class="cls-3" d="M385.32,726.68h-196.12c-14.48,0-35.14-2.38-51.36-13.73-15.28-10.69-23.03-26.75-23.03-47.73v-226.27l.18-.15,270.33-223.02v510.89ZM115.81,439.42v225.8c0,37.86,27.44,60.46,73.4,60.46h195.12V217.9L115.81,439.42Z"/>
  </g>
  <g>
    <path class="cls-4" d="M387.71,726.18V216.84s269.51,222.34,269.51,222.34v226.03c0,44.92-36.22,60.96-73.9,60.96h-195.62Z"/>
    <path class="cls-4" d="M583.32,726.68h-196.12V215.78l.82.67,269.7,222.49v226.27c0,20.99-7.75,37.04-23.03,47.73-16.22,11.34-36.89,13.73-51.36,13.73ZM388.21,725.68h195.12c45.96,0,73.4-22.6,73.4-60.46v-225.8l-268.51-221.52v507.77Z"/>
  </g>
  <rect class="cls-5" x="522.46" y="4.5" width="13.04" height="185.46"/>
  <path class="cls-6" d="M550.89,139.21V40.38c11.48-14.66,38.66-32.53,68.1-32.33v79.14s-13.84-15.06-13.84-15.06l-54.26,67.08Z"/>
  <path class="cls-1" d="M629.77,91.19V8.41c22.27,3,41.08,11.91,57.14,27.29l-57.14,55.48Z"/>
  <path class="cls-2" d="M643.36,93.13l50.21-49.93c10.43,13.92,16.79,30.41,18.31,49.93h-68.52Z"/>
  <path class="cls-2" d="M549.33,159.7l57.14-70.74,14.42,16.37h90.98c0,46.6-43.83,84.63-72.68,84.63h-89.88v-30.26Z"/>
  <path class="cls-8" d="M463.86,429.06c-.78-.59-1.17-1.46-1.17-2.64l-12.01-64.16-.59-.29c-.39-.19-.98-.29-1.76-.29-5.67-2.93-12.79-5.37-21.39-7.32-8.6-1.95-17.29-3.32-26.07-4.1v139.75l21.97,9.67c12.89,5.47,25.05,11.53,36.47,18.16,11.43,6.64,21.24,14.06,29.44,22.27s14.6,17.58,19.19,28.12c4.59,10.55,6.88,22.85,6.88,36.91,0,17.19-3.03,32.47-9.08,45.85-6.06,13.38-14.16,25-24.32,34.86-10.16,9.87-22.12,17.78-35.89,23.73-13.77,5.96-28.67,10.11-44.68,12.45v48.05c0,2.15-1.08,3.22-3.22,3.22h-21.39c-1.96,0-2.93-1.08-2.93-3.22v-45.41h-7.32c-16.02,0-32.23-1.42-48.63-4.25-16.41-2.83-31.45-6.2-45.12-10.11-.78-.59-1.46-1.07-2.05-1.46-.59-.39-.88-1.36-.88-2.93v-86.43c0-1.17.29-2.15.88-2.93.59-.78,1.27-1.17,2.05-1.17h23.44c.39,0,1.03.29,1.9.88s1.32,1.46,1.32,2.64l10.55,63.57c0,.39.88.98,2.64,1.76,3.9,2.15,8.35,3.81,13.33,4.98s10.2,2.25,15.67,3.22c5.47.98,10.89,1.66,16.26,2.05,5.37.39,10.2.59,14.5.59h1.46v-152.93l-15.82-7.03c-12.3-5.27-24.07-11.03-35.3-17.29-11.23-6.25-20.95-13.48-29.15-21.68s-14.79-17.38-19.78-27.54c-4.98-10.15-7.47-22.07-7.47-35.74,0-15.62,2.88-29.64,8.64-42.04,5.76-12.4,13.57-23.29,23.44-32.67,9.86-9.38,21.29-16.85,34.28-22.41,12.99-5.57,26.71-9.52,41.16-11.87v-48.05c0-1.95.97-2.93,2.93-2.93h21.39c2.15,0,3.22.98,3.22,2.93v46c6.83,0,14.01.44,21.53,1.32,7.52.88,15.18,2,23,3.37,7.81,1.37,15.43,2.74,22.85,4.1,7.42,1.37,14.16,2.93,20.21,4.69.78.39,1.46.78,2.05,1.17.59.39.88,1.37.88,2.93v86.43c0,1.17-.29,2.15-.88,2.93-.59.78-1.27,1.17-2.05,1.17h-22.85c-.39,0-.98-.29-1.76-.88ZM316.78,410.89c0,8.01,1.41,15.29,4.25,21.83,2.83,6.55,6.74,12.5,11.72,17.87,4.98,5.37,10.89,10.25,17.72,14.65,6.83,4.39,14.45,8.64,22.85,12.74v-125.98c-7.62,1.57-14.85,3.96-21.68,7.18-6.84,3.22-12.84,7.32-18.02,12.3-5.18,4.98-9.28,10.79-12.3,17.43-3.03,6.64-4.54,13.97-4.54,21.97ZM461.51,627.98c0-9.18-1.61-17.48-4.83-24.9-3.22-7.42-7.67-14.01-13.33-19.78-5.67-5.76-12.06-10.94-19.19-15.53-7.13-4.59-14.9-8.94-23.29-13.04v137.4c8.4-1.56,16.31-4.15,23.73-7.76,7.42-3.61,13.82-8.1,19.19-13.48s9.67-11.67,12.89-18.9c3.22-7.22,4.83-15.23,4.83-24.02Z"/>
  <text class="cls-9" transform="translate(795.34 567.71)"><tspan class="cls-13"><tspan class="cls-10" x="0" y="0">Famil</tspan><tspan class="cls-11" x="544.39" y="0">y</tspan><tspan class="cls-10" x="646.79" y="0" xml:space="preserve"> Budget</tspan></tspan><tspan class="cls-12"><tspan class="cls-14" x="368.11" y="160">Simplifi</tspan><tspan class="cls-15" x="882.18" y="160">e</tspan><tspan class="cls-14" x="949.36" y="160">d</tspan></tspan></text>
</svg>